<?xml version="1.0" encoding="UTF-8"?>
<svg id="Capa_1" data-name="Capa 1" xmlns="http://www.w3.org/2000/svg" viewBox="0 0 315.51 287.76">
  <defs>
    <style>
      .cls-1 {
        fill: #fac457;
      }

      .cls-2 {
        fill: #fff;
      }

      .cls-3 {
        fill: #f59e07;
      }
    </style>
  </defs>
  <g>
    <polygon class="cls-1" points="68.93 86.6 125.12 86.6 158.27 119.92 158.27 96.88 130.59 69.7 30.84 69.7 158.27 199.48 158.27 174.95 68.93 86.6"/>
    <polygon class="cls-3" points="247.61 86.6 191.42 86.6 158.27 119.92 158.27 96.88 185.95 69.7 285.71 69.7 158.27 199.48 158.27 174.95 247.61 86.6"/>
    <polygon class="cls-3" points="178.5 45.98 203.03 45.98 158.28 1.38 158.27 1.38 158.28 25.87 178.5 45.98"/>
    <polygon class="cls-1" points="138.05 45.98 113.52 45.98 158.27 1.38 158.27 1.38 158.27 25.87 138.05 45.98"/>
  </g>
  <g>
    <g>
      <path class="cls-2" d="M14.58,269.81L1.04,234.75h7.09l9.41,24.48,9.46-24.48h7.04l-13.5,35.07h-5.96Z"/>
      <path class="cls-2" d="M39.95,269.81v-35.07h6.6v35.07h-6.6Z"/>
      <path class="cls-2" d="M77.87,269.81l-3.6-9.46h-11.62l-3.64,9.46h-7.04l13.5-35.07h5.96l13.54,35.07h-7.09ZM71.71,253.86l-3.25-8.52-3.25,8.52h6.5Z"/>
      <path class="cls-2" d="M78.8,278.93l-1.13-1.18,5.52-3.99.74.74c1.23,1.03,2.81,1.62,4.33,1.62,3.74,0,6.9-3.2,6.9-6.99v-27.78h-8.67v-6.65h15.37v34.43c0,3.64-1.43,7.09-3.99,9.65-1.23,1.28-2.76,2.22-4.38,2.91-1.63.64-3.4.99-5.22.99-3.6,0-6.99-1.33-9.46-3.74Z"/>
      <path class="cls-2" d="M109.34,269.81v-35.07h23.1v6.4h-16.5v5.17h14.38v6.55h-14.38v10.44h16.06v6.5h-22.66Z"/>
      <path class="cls-2" d="M148.25,269.72c-3.64-.74-7.19-2.51-10.29-5.22l-.94-.84,4.33-4.93.94.84c2.27,1.97,4.78,3.3,7.24,3.79h.05c.74.15,1.48.25,2.22.25,1.23,0,2.36-.25,3.3-.69,1.18-.49,2.56-1.58,2.56-3.6,0-1.08-.54-1.92-1.67-2.61-1.38-.84-3.25-1.28-4.58-1.53-.59-.1-5.62-1.13-7.93-2.41-1.53-.94-2.71-2.12-3.55-3.5-.84-1.43-1.23-3-1.23-4.73,0-1.87.59-3.74,1.72-5.47,1.08-1.43,2.56-2.61,4.33-3.45s3.74-1.28,5.86-1.28c.84,0,1.72.1,2.61.2,3.25.59,6.45,2.07,9.26,4.43l.94.79-4.19,5.07-.94-.79c-3.2-2.61-5.96-3.2-7.73-3.2-1.13,0-2.17.25-3.05.64-1.38.64-2.27,1.82-2.27,3,0,1.08.39,1.77,1.33,2.41s2.36,1.13,4.63,1.63c.3.05.69.15,1.08.25,2.07.39,4.83.99,6.75,2.12,1.67.89,2.96,2.12,3.84,3.55.89,1.43,1.33,3.1,1.33,4.88,0,2.22-.59,4.19-1.77,5.86-1.03,1.43-2.56,2.66-4.58,3.65-1.72.89-3.64,1.28-6.06,1.28-1.13,0-2.31-.15-3.55-.39Z"/>
      <path class="cls-2" d="M176.23,269.81v-28.57h-8.62v-6.5h23.84v6.5h-8.62v28.57h-6.6Z"/>
      <path class="cls-2" d="M199.18,269.81v-35.07h6.6v35.07h-6.6Z"/>
      <path class="cls-2" d="M237.3,269.81l-15.56-23v23h-6.6v-35.07h6.4l15.51,22.95v-22.95h6.6v35.07h-6.35Z"/>
      <path class="cls-2" d="M248.43,252.03c0-10.15,8.23-18.37,18.32-18.37s18.37,8.23,18.37,18.37-8.23,18.27-18.37,18.27-18.32-8.18-18.32-18.27ZM255.03,252.03c0,6.5,5.27,11.77,11.72,11.77s11.72-5.27,11.72-11.77-5.27-11.82-11.72-11.82-11.72,5.27-11.72,11.82Z"/>
      <path class="cls-2" d="M299.55,269.72c-3.65-.74-7.19-2.51-10.29-5.22l-.94-.84,4.33-4.93.94.84c2.27,1.97,4.78,3.3,7.24,3.79h.05c.74.15,1.48.25,2.22.25,1.23,0,2.36-.25,3.3-.69,1.18-.49,2.56-1.58,2.56-3.6,0-1.08-.54-1.92-1.67-2.61-1.38-.84-3.25-1.28-4.58-1.53-.59-.1-5.62-1.13-7.93-2.41-1.53-.94-2.71-2.12-3.55-3.5-.84-1.43-1.23-3-1.23-4.73,0-1.87.59-3.74,1.72-5.47,1.08-1.43,2.56-2.61,4.33-3.45,1.77-.84,3.74-1.28,5.86-1.28.84,0,1.72.1,2.61.2,3.25.59,6.45,2.07,9.26,4.43l.94.79-4.19,5.07-.94-.79c-3.2-2.61-5.96-3.2-7.73-3.2-1.13,0-2.17.25-3.05.64-1.38.64-2.27,1.82-2.27,3,0,1.08.39,1.77,1.33,2.41.94.64,2.36,1.13,4.63,1.63.3.05.69.15,1.08.25,2.07.39,4.83.99,6.75,2.12,1.67.89,2.96,2.12,3.84,3.55.89,1.43,1.33,3.1,1.33,4.88,0,2.22-.59,4.19-1.77,5.86-1.04,1.43-2.56,2.66-4.58,3.65-1.72.89-3.64,1.28-6.06,1.28-1.13,0-2.31-.15-3.55-.39Z"/>
    </g>
    <g>
      <path class="cls-2" d="M114.26,283.87l3.33-7.2h.92l-4.24,8.88-4.24-8.88h.92l3.33,7.2Z"/>
      <path class="cls-2" d="M123.19,273.84c.16.15.23.34.23.55s-.08.41-.23.56c-.16.15-.34.23-.56.23s-.4-.08-.56-.23c-.16-.15-.23-.34-.23-.56s.08-.4.23-.55c.16-.15.34-.23.56-.23s.4.08.56.23ZM123.03,276.67v8.64h-.79v-8.64h.79Z"/>
      <path class="cls-2" d="M131.01,283.87l3.33-7.2h.92l-4.24,8.88-4.24-8.88h.92l3.33,7.2Z"/>
      <path class="cls-2" d="M140.28,283.69c.75.68,1.63,1.02,2.66,1.02,1.1,0,2.04-.39,2.82-1.17.1-.1.19-.2.28-.31l.84.3c-.15.21-.33.41-.52.61-.94.94-2.08,1.42-3.42,1.42s-2.47-.47-3.41-1.42-1.42-2.09-1.42-3.42.47-2.47,1.42-3.41,2.08-1.42,3.41-1.42c1.14,0,2.14.34,3,1.03.14.12.28.25.42.39.05.05.1.11.15.16l-.6.6-5.63,5.63ZM145.33,277.52c-.69-.53-1.48-.79-2.39-.79-1.1,0-2.04.39-2.82,1.17-.78.78-1.17,1.72-1.17,2.82,0,.91.26,1.71.79,2.39l5.59-5.59Z"/>
      <path class="cls-2" d="M158.82,276.67h.79v.2c.49-.48,1.08-.71,1.77-.71s1.31.25,1.81.75c.13.13.25.28.35.44.1-.15.22-.3.36-.44.5-.5,1.1-.75,1.81-.75s1.31.25,1.81.75c.48.48.72,1.06.75,1.73v6.67h-.79v-6.67h0c-.02-.46-.2-.85-.52-1.17-.35-.35-.77-.52-1.26-.52s-.91.17-1.25.52c-.35.35-.52.78-.52,1.29v6.55h-.79v-6.67h0c-.02-.46-.2-.85-.52-1.17-.35-.35-.77-.52-1.26-.52s-.9.17-1.25.52c-.31.3-.48.67-.52,1.1v6.74h-.79v-8.64Z"/>
      <path class="cls-2" d="M182.04,285.31h-.79v-1.76c-.15.21-.32.4-.5.59-.94.94-2.08,1.42-3.42,1.42s-2.47-.47-3.41-1.42-1.42-2.08-1.42-3.41.47-2.48,1.42-3.42,2.08-1.42,3.41-1.42,2.48.47,3.42,1.42c.18.19.35.38.5.59v-1.22h.79v8.64ZM181.25,281.51v-1.57c-.15-.77-.51-1.45-1.1-2.04-.78-.78-1.72-1.17-2.82-1.17s-2.04.39-2.82,1.17c-.78.78-1.17,1.72-1.17,2.82s.39,2.04,1.17,2.82c.78.78,1.72,1.17,2.82,1.17s2.04-.39,2.82-1.17c.59-.59.95-1.26,1.1-2.03ZM179.2,273.11l-2.16,1.65h-.74l1.43-1.65h1.46Z"/>
      <path class="cls-2" d="M188.86,280.87c-.67-.36-1.14-.67-1.4-.93-.4-.4-.61-.89-.61-1.46s.2-1.07.61-1.47c.41-.41.89-.61,1.46-.61s1.05.19,1.42.56c.36.37.55.79.55,1.26v.04l-.69.27c-.06-.45-.2-.78-.42-1-.22-.22-.51-.33-.87-.33s-.65.12-.91.37-.38.55-.38.91.13.65.38.91c.15.15.46.37.93.67.75.41,1.28.77,1.6,1.09.5.5.75,1.11.75,1.8s-.25,1.32-.75,1.83c-.5.5-1.1.75-1.81.75s-1.31-.25-1.81-.75c-.5-.5-.75-1.05-.75-1.65l.78-.2c0,.52.17.95.52,1.29s.77.52,1.25.52.9-.17,1.25-.52c.35-.35.52-.77.52-1.27s-.17-.9-.52-1.25c-.19-.19-.57-.46-1.13-.83Z"/>
      <path class="cls-2" d="M195.84,283.85l-1.63,3.39h-.74l.91-3.39h1.46Z"/>
      <path class="cls-2" d="M210.61,283.87l3.33-7.2h.92l-4.24,8.88-4.24-8.88h.92l3.33,7.2Z"/>
      <path class="cls-2" d="M219.55,273.84c.16.15.23.34.23.55s-.08.41-.23.56c-.16.15-.34.23-.56.23s-.4-.08-.56-.23c-.16-.15-.23-.34-.23-.56s.08-.4.23-.55c.16-.15.34-.23.56-.23s.4.08.56.23ZM219.38,276.67v8.64h-.79v-8.64h.79Z"/>
      <path class="cls-2" d="M233.33,285.31h-.79v-1.76c-.15.21-.32.4-.5.59-.94.94-2.08,1.42-3.42,1.42s-2.47-.47-3.41-1.42-1.42-2.08-1.42-3.41.47-2.48,1.42-3.42,2.08-1.42,3.41-1.42,2.48.47,3.42,1.42c.18.19.35.38.5.59v-1.22h.79v8.64ZM232.53,281.51v-1.57c-.15-.77-.51-1.45-1.1-2.04-.78-.78-1.72-1.17-2.82-1.17s-2.04.39-2.82,1.17c-.78.78-1.17,1.72-1.17,2.82s.39,2.04,1.17,2.82c.78.78,1.72,1.17,2.82,1.17s2.04-.39,2.82-1.17c.59-.59.95-1.26,1.1-2.03Z"/>
      <path class="cls-2" d="M236.88,286.52c.71-.08,1.07-.48,1.07-1.2v-8.66h.79v8.64c0,1.24-.62,1.91-1.86,2.01v-.79ZM238.9,273.84c.16.15.23.34.23.55s-.08.41-.23.56c-.16.15-.34.23-.56.23s-.4-.08-.56-.23c-.16-.15-.23-.34-.23-.56s.08-.4.23-.55c.16-.15.34-.23.56-.23s.4.08.56.23Z"/>
      <path class="cls-2" d="M252.9,285.31h-.79v-1.76c-.15.21-.32.4-.5.59-.94.94-2.08,1.42-3.42,1.42s-2.47-.47-3.41-1.42-1.42-2.08-1.42-3.41.47-2.48,1.42-3.42,2.08-1.42,3.41-1.42,2.48.47,3.42,1.42c.18.19.35.38.5.59v-1.22h.79v8.64ZM252.11,281.51v-1.57c-.15-.77-.51-1.45-1.1-2.04-.78-.78-1.72-1.17-2.82-1.17s-2.04.39-2.82,1.17c-.78.78-1.17,1.72-1.17,2.82s.39,2.04,1.17,2.82c.78.78,1.72,1.17,2.82,1.17s2.04-.39,2.82-1.17c.59-.59.95-1.26,1.1-2.03Z"/>
      <path class="cls-2" d="M265.37,276.67h.79v.2c.49-.48,1.08-.71,1.77-.71s1.31.25,1.81.75c.13.13.25.28.35.44.1-.15.22-.3.36-.44.5-.5,1.1-.75,1.81-.75s1.31.25,1.81.75c.48.48.72,1.06.75,1.73v6.67h-.79v-6.67h0c-.02-.46-.2-.85-.52-1.17-.35-.35-.77-.52-1.26-.52s-.91.17-1.25.52c-.35.35-.52.78-.52,1.29v6.55h-.79v-6.67h0c-.02-.46-.2-.85-.52-1.17-.35-.35-.77-.52-1.26-.52s-.9.17-1.25.52c-.31.3-.48.67-.52,1.1v6.74h-.79v-8.64Z"/>
      <path class="cls-2" d="M280.91,283.69c.75.68,1.63,1.02,2.66,1.02,1.1,0,2.04-.39,2.82-1.17.1-.1.19-.2.28-.31l.84.3c-.15.21-.33.41-.52.61-.94.94-2.08,1.42-3.42,1.42s-2.47-.47-3.41-1.42-1.42-2.09-1.42-3.42.47-2.47,1.42-3.41,2.08-1.42,3.41-1.42c1.14,0,2.14.34,3,1.03.14.12.28.25.42.39.05.05.1.11.15.16l-.6.6-5.63,5.63ZM285.96,277.52c-.69-.53-1.48-.79-2.39-.79-1.1,0-2.04.39-2.82,1.17-.78.78-1.17,1.72-1.17,2.82,0,.91.26,1.71.79,2.39l5.59-5.59Z"/>
      <path class="cls-2" d="M290.54,286.52c.71-.08,1.07-.48,1.07-1.2v-8.66h.79v8.64c0,1.24-.62,1.91-1.86,2.01v-.79ZM292.56,273.84c.16.15.23.34.23.55s-.08.41-.23.56c-.16.15-.34.23-.56.23s-.4-.08-.56-.23c-.16-.15-.23-.34-.23-.56s.08-.4.23-.55c.16-.15.34-.23.56-.23s.4.08.56.23Z"/>
      <path class="cls-2" d="M301.53,275.89c1.34,0,2.48.47,3.42,1.42s1.41,2.09,1.41,3.42-.47,2.47-1.41,3.41-2.08,1.42-3.42,1.42-2.47-.47-3.41-1.42-1.42-2.08-1.42-3.41.47-2.48,1.42-3.42,2.08-1.42,3.41-1.42ZM298.71,277.9c-.78.78-1.17,1.72-1.17,2.82s.39,2.04,1.17,2.82c.78.78,1.72,1.17,2.82,1.17s2.04-.39,2.82-1.17c.78-.78,1.17-1.72,1.17-2.82s-.39-2.04-1.17-2.82c-.78-.78-1.72-1.17-2.82-1.17s-2.04.39-2.82,1.17Z"/>
      <path class="cls-2" d="M310.28,276.67h.79v1.57c.16-.23.36-.46.57-.68.7-.7,1.41-1.06,2.15-1.1v.86c-.5.02-1.01.3-1.55.84-.75.75-1.14,1.64-1.17,2.68v4.46h-.79v-8.64Z"/>
    </g>
  </g>
</svg>